<svg width="95" height="129" viewBox="0 0 95 129" fill="none" xmlns="http://www.w3.org/2000/svg">
<mask id="path-1-inside-1_1:67" fill="white">
<path fill-rule="evenodd" clip-rule="evenodd" d="M84.6922 51.9506L47.5 0L10.3078 51.9506C9.30604 53.2098 8.36689 54.521 7.49504 55.8795L7.22982 56.25H7.2597C2.66028 63.5646 0 72.2216 0 81.5C0 107.734 21.2665 129 47.5 129C73.7335 129 95 107.734 95 81.5C95 72.2216 92.3397 63.5646 87.7403 56.25H87.7702L87.505 55.8795C86.6331 54.521 85.694 53.2098 84.6922 51.9506Z"/>
</mask>
<path fill-rule="evenodd" clip-rule="evenodd" d="M84.6922 51.9506L47.5 0L10.3078 51.9506C9.30604 53.2098 8.36689 54.521 7.49504 55.8795L7.22982 56.25H7.2597C2.66028 63.5646 0 72.2216 0 81.5C0 107.734 21.2665 129 47.5 129C73.7335 129 95 107.734 95 81.5C95 72.2216 92.3397 63.5646 87.7403 56.25H87.7702L87.505 55.8795C86.6331 54.521 85.694 53.2098 84.6922 51.9506Z" fill="#201D34"/>
<path d="M47.5 0L62.949 -11.0602L47.5 -32.6396L32.051 -11.0602L47.5 0ZM84.6922 51.9506L69.2432 63.0108L69.5236 63.4026L69.8236 63.7796L84.6922 51.9506ZM10.3078 51.9506L25.1764 63.7796L25.4764 63.4026L25.7568 63.0108L10.3078 51.9506ZM7.49504 55.8795L22.944 66.9398L23.2249 66.5475L23.4854 66.1415L7.49504 55.8795ZM7.22982 56.25L-8.21918 45.1898L-29.7398 75.25H7.22982V56.25ZM7.2597 56.25L23.3441 66.3639L41.651 37.25H7.2597V56.25ZM87.7403 56.25V37.25H53.349L71.6559 66.3639L87.7403 56.25ZM87.7702 56.25V75.25H124.74L103.219 45.1899L87.7702 56.25ZM87.505 55.8795L71.5146 66.1415L71.7751 66.5475L72.0559 66.9397L87.505 55.8795ZM32.051 11.0602L69.2432 63.0108L100.141 40.8904L62.949 -11.0602L32.051 11.0602ZM25.7568 63.0108L62.949 11.0602L32.051 -11.0602L-5.14123 40.8905L25.7568 63.0108ZM23.4854 66.1415C24.0089 65.3258 24.5735 64.5375 25.1764 63.7796L-4.56083 40.1217C-5.96138 41.8821 -7.27511 43.7162 -8.49532 45.6175L23.4854 66.1415ZM22.6788 67.3102L22.944 66.9398L-7.95396 44.8193L-8.21918 45.1898L22.6788 67.3102ZM7.2597 37.25H7.22982V75.25H7.2597V37.25ZM19 81.5C19 75.9038 20.5937 70.7379 23.3441 66.3639L-8.82472 46.1361C-15.2732 56.3912 -19 68.5394 -19 81.5H19ZM47.5 110C31.7599 110 19 97.2401 19 81.5H-19C-19 118.227 10.7731 148 47.5 148V110ZM76 81.5C76 97.2401 63.2401 110 47.5 110V148C84.2269 148 114 118.227 114 81.5H76ZM71.6559 66.3639C74.4063 70.7379 76 75.9038 76 81.5H114C114 68.5394 110.273 56.3912 103.825 46.1361L71.6559 66.3639ZM87.7702 37.25H87.7403V75.25H87.7702V37.25ZM72.0559 66.9397L72.3211 67.3101L103.219 45.1899L102.954 44.8194L72.0559 66.9397ZM69.8236 63.7796C70.4266 64.5375 70.9911 65.3258 71.5146 66.1415L103.495 45.6176C102.275 43.7162 100.961 41.8821 99.5608 40.1217L69.8236 63.7796Z" fill="#A2E633" mask="url(#path-1-inside-1_1:67)"/>
</svg>
