<svg width="889" height="893" viewBox="0 0 889 893" fill="none" xmlns="http://www.w3.org/2000/svg">
<circle cx="444" cy="449" r="397.5" fill="#201D34" stroke="#A2E633" stroke-width="3"/>
<line x1="137.243" y1="202.434" x2="756.99" y2="694.408" stroke="#A2E633" stroke-width="4"/>
<line x1="738.354" y1="181.472" x2="152.354" y2="720.472" stroke="#A2E633" stroke-width="4"/>
<line x1="442" y1="52.9798" x2="450" y2="844.98" stroke="#A2E633" stroke-width="4"/>
<path d="M46.9931 454.5L842.993 443.5" stroke="#A2E633" stroke-width="4"/>
<ellipse cx="444.5" cy="446.5" rx="418.5" ry="420.5" stroke="url(#paint0_angular_1:79)" stroke-width="51"/>
<path d="M574.628 150.516L542.522 180.747L533.762 176.991L565.01 148.84L544.216 139.924L547.098 133.203L576.623 145.863L574.628 150.516ZM599.595 184.75C597.115 190.533 594.022 194.442 590.315 196.48C586.608 198.517 582.447 198.546 577.833 196.568C573.276 194.614 570.435 191.617 569.312 187.576C568.188 183.535 568.8 178.698 571.149 173.063L574.449 165.366C576.953 159.526 580.06 155.61 583.77 153.619C587.499 151.637 591.642 151.622 596.199 153.576C600.756 155.53 603.596 158.528 604.72 162.568C605.851 166.59 605.243 171.418 602.895 177.053L599.595 184.75ZM594.915 172.747C596.401 169.281 597.002 166.558 596.718 164.578C596.461 162.586 595.327 161.159 593.317 160.297C591.364 159.46 589.594 159.596 588.007 160.707C586.448 161.806 584.954 163.942 583.525 167.115L579.166 177.282C577.704 180.691 577.076 183.425 577.281 185.485C577.513 187.534 578.653 188.997 580.702 189.876C582.732 190.746 584.537 190.58 586.119 189.376C587.7 188.173 589.212 185.942 590.654 182.684L594.915 172.747Z" fill="#FF16A3"/>
<path d="M722.425 308.572L723.844 313.17C724.52 315.36 725.568 316.814 726.989 317.531C728.409 318.248 730.025 318.327 731.837 317.768C733.588 317.227 734.789 316.279 735.439 314.923C736.095 313.587 736.141 312.003 735.575 310.172C735.065 308.519 734.181 307.277 732.921 306.445C731.681 305.607 730.334 305.412 728.881 305.86L726.218 297.23C728.487 296.53 730.705 296.511 732.872 297.172C735.064 297.847 737.006 299.123 738.697 300.999C740.394 302.896 741.651 305.168 742.468 307.815C743.887 312.414 743.895 316.358 742.49 319.648C741.105 322.931 738.481 325.169 734.619 326.361C732.629 326.975 730.61 326.933 728.563 326.235C726.516 325.537 724.74 324.34 723.236 322.646C723.116 325.365 722.364 327.592 720.981 329.327C719.604 331.082 717.721 332.328 715.332 333.065C711.47 334.257 707.939 333.799 704.737 331.691C701.542 329.603 699.229 326.24 697.797 321.601C696.458 317.262 696.506 313.355 697.941 309.881C699.383 306.428 701.985 304.12 705.747 302.959L708.41 311.589C706.778 312.093 705.632 313.111 704.971 314.645C704.317 316.199 704.266 317.872 704.819 319.663C705.452 321.714 706.484 323.15 707.915 323.973C709.373 324.81 710.997 324.952 712.789 324.399C717.128 323.059 718.561 320.001 717.087 315.223L715.677 310.655L722.425 308.572ZM731.999 366.513C725.987 368.368 721.005 368.543 717.052 367.038C713.099 365.532 710.382 362.381 708.901 357.583C707.439 352.845 707.884 348.74 710.235 345.267C712.587 341.794 716.669 339.128 722.484 337.268L730.486 334.799C736.558 332.925 741.553 332.757 745.473 334.294C749.398 335.852 752.092 339 753.554 343.737C755.016 348.475 754.572 352.581 752.22 356.053C749.889 359.52 745.816 362.183 740.002 364.043L731.999 366.513ZM738.115 355.174C741.718 354.062 744.182 352.756 745.508 351.257C746.859 349.772 747.212 347.984 746.567 345.894C745.94 343.863 744.69 342.603 742.816 342.113C740.969 341.637 738.374 341.881 735.031 342.848L724.46 346.11C720.917 347.203 718.426 348.495 716.989 349.985C715.578 351.489 715.202 353.306 715.859 355.436C716.51 357.546 717.806 358.814 719.747 359.24C721.688 359.665 724.367 359.373 727.783 358.362L738.115 355.174Z" fill="#FF16A3"/>
<path d="M295.983 165.66C297.039 167.599 297.491 169.583 297.339 171.612C297.187 173.64 296.504 175.566 295.291 177.389C297.738 177.266 299.978 177.718 302.009 178.747C304.03 179.757 305.644 181.369 306.85 183.583C308.784 187.132 309.106 190.598 307.817 193.981C306.519 197.345 303.793 200.159 299.64 202.421C295.487 204.684 291.631 205.444 288.071 204.702C284.512 203.961 281.771 201.824 279.847 198.293C278.641 196.08 278.157 193.841 278.394 191.576C278.631 189.312 279.461 187.199 280.884 185.238C278.694 185.268 276.706 184.797 274.919 183.826C273.15 182.844 271.738 181.383 270.681 179.444C268.828 176.041 268.487 172.715 269.659 169.467C270.821 166.201 273.351 163.506 277.248 161.383C281.126 159.27 284.748 158.602 288.113 159.379C291.486 160.127 294.109 162.221 295.983 165.66ZM298.578 187.342C297.631 185.604 296.37 184.488 294.796 183.993C293.222 183.498 291.584 183.715 289.883 184.641C288.2 185.558 287.139 186.812 286.701 188.403C286.253 189.976 286.507 191.64 287.464 193.397C288.391 195.098 289.632 196.201 291.188 196.706C292.744 197.21 294.4 196.984 296.157 196.027C297.876 195.091 298.947 193.855 299.368 192.32C299.808 190.776 299.545 189.117 298.578 187.342ZM288.261 170.365C287.414 168.81 286.325 167.79 284.993 167.305C283.652 166.803 282.231 166.96 280.731 167.777C279.249 168.584 278.346 169.67 278.021 171.033C277.696 172.396 277.972 173.883 278.849 175.493C279.716 177.084 280.825 178.141 282.177 178.662C283.528 179.183 284.954 179.035 286.454 178.218C287.954 177.4 288.843 176.288 289.12 174.879C289.415 173.461 289.129 171.956 288.261 170.365ZM336.087 160.431C339.097 165.956 340.256 170.805 339.564 174.978C338.871 179.151 336.321 182.438 331.912 184.84C327.558 187.212 323.446 187.59 319.576 185.974C315.706 184.357 312.283 180.884 309.308 175.553L305.302 168.199C302.262 162.619 301.107 157.756 301.838 153.61C302.586 149.453 305.138 146.189 309.492 143.817C313.846 141.445 317.958 141.067 321.828 142.684C325.688 144.282 329.105 147.746 332.081 153.077L336.087 160.431ZM323.761 156.684C321.957 153.372 320.189 151.216 318.457 150.214C316.734 149.184 314.911 149.192 312.99 150.238C311.124 151.255 310.137 152.73 310.028 154.664C309.927 156.569 310.681 159.064 312.291 162.15L317.583 171.864C319.357 175.12 321.117 177.305 322.862 178.419C324.615 179.504 326.471 179.513 328.428 178.446C330.368 177.39 331.354 175.868 331.386 173.881C331.419 171.895 330.601 169.327 328.934 166.179L323.761 156.684Z" fill="#FF16A3"/>
<path d="M157.829 359.303C159.543 362.124 160.041 365.065 159.322 368.128C158.404 372.042 156.33 374.862 153.1 376.586C149.851 378.306 145.944 378.631 141.381 377.56C138.48 376.88 135.971 375.627 133.852 373.804C131.718 371.955 130.248 369.737 129.442 367.152C128.617 364.561 128.537 361.846 129.203 359.007C129.888 356.086 131.227 353.661 133.221 351.732C135.214 349.803 137.727 348.531 140.761 347.916C143.794 347.301 147.077 347.397 150.611 348.205L153.867 348.969C161.249 350.701 166.62 353.897 169.977 358.558C173.334 363.219 174.365 368.95 173.069 375.751L172.593 377.918L165.261 376.197L165.687 374.243C167.136 366.516 164.517 361.536 157.829 359.303ZM153.105 364.39C153.438 362.97 153.359 361.668 152.866 360.482C152.379 359.276 151.68 358.289 150.769 357.518L147.149 356.669C144.167 355.969 141.722 355.995 139.812 356.745C137.903 357.496 136.725 358.824 136.277 360.731C135.863 362.495 136.334 364.136 137.691 365.652C139.026 367.164 140.911 368.205 143.345 368.777C145.759 369.343 147.875 369.262 149.694 368.533C151.497 367.779 152.634 366.398 153.105 364.39ZM167.785 314.133C173.911 315.57 178.299 317.937 180.949 321.234C183.599 324.531 184.351 328.623 183.204 333.511C182.072 338.339 179.613 341.656 175.829 343.465C172.045 345.273 167.175 345.511 161.218 344.177L153.064 342.264C146.878 340.813 142.482 338.434 139.877 335.126C137.277 331.798 136.543 327.721 137.676 322.894C138.809 318.066 141.267 314.748 145.051 312.94C148.814 311.127 153.675 310.887 159.632 312.22L167.785 314.133ZM156.778 320.827C153.107 319.966 150.321 319.847 148.42 320.471C146.503 321.07 145.295 322.434 144.795 324.564C144.31 326.633 144.752 328.352 146.121 329.722C147.474 331.067 149.838 332.167 153.211 333.022L163.981 335.549C167.591 336.396 170.392 336.54 172.385 335.98C174.363 335.396 175.606 334.018 176.115 331.848C176.62 329.698 176.142 327.949 174.682 326.601C173.223 325.253 170.763 324.151 167.305 323.297L156.778 320.827Z" fill="#FF16A3"/>
<path d="M331.564 718.495L326.824 716.465L329.691 709.772L334.431 711.802L338.307 702.754L346.609 706.31L342.733 715.358L359.882 722.705L358.016 728.092L328.779 748.171L320.391 744.578L331.564 718.495ZM349.115 726.014L339.866 722.051L333.541 736.816L334.493 736.102L349.115 726.014ZM293.528 704.038C296.005 698.254 299.097 694.343 302.803 692.305C306.51 690.266 310.67 690.235 315.286 692.212C319.843 694.165 322.685 697.161 323.81 701.201C324.935 705.241 324.324 710.079 321.978 715.715L318.68 723.413C316.178 729.254 313.073 733.171 309.364 735.163C305.636 737.147 301.493 737.162 296.935 735.21C292.377 733.258 289.536 730.261 288.411 726.221C287.277 722.2 287.884 717.372 290.23 711.736L293.528 704.038ZM298.212 716.039C296.727 719.505 296.127 722.229 296.412 724.209C296.669 726.2 297.803 727.627 299.814 728.488C301.768 729.325 303.537 729.188 305.124 728.077C306.683 726.977 308.176 724.84 309.604 721.667L313.96 711.498C315.42 708.089 316.047 705.355 315.842 703.295C315.609 701.246 314.468 699.783 312.419 698.905C310.389 698.036 308.583 698.203 307.002 699.407C305.421 700.611 303.91 702.842 302.469 706.1L298.212 716.039Z" fill="#FF16A3"/>
<path d="M190.448 560.181L193.114 568.809L159.853 579.087L166.231 588.4L159.214 590.568L147.202 574.557L146.916 573.632L190.448 560.181ZM159.06 522.322C165.071 520.465 170.053 520.288 174.007 521.792C177.96 523.296 180.678 526.447 182.161 531.244C183.624 535.981 183.181 540.086 180.831 543.56C178.481 547.034 174.399 549.701 168.585 551.563L160.584 554.036C154.513 555.912 149.517 556.081 145.597 554.545C141.671 552.989 138.976 549.842 137.513 545.105C136.049 540.368 136.492 536.262 138.842 532.789C141.172 529.321 145.244 526.656 151.058 524.795L159.06 522.322ZM152.948 533.663C149.345 534.776 146.881 536.083 145.557 537.582C144.206 539.068 143.853 540.856 144.499 542.946C145.127 544.976 146.377 546.236 148.251 546.726C150.099 547.201 152.694 546.956 156.037 545.988L166.606 542.722C170.149 541.628 172.639 540.335 174.075 538.844C175.486 537.34 175.862 535.523 175.204 533.393C174.552 531.283 173.255 530.016 171.314 529.591C169.373 529.166 166.694 529.459 163.278 530.471L152.948 533.663Z" fill="#FF16A3"/>
<path d="M614.723 699.783L623.489 721.343L601.1 733.55L597.495 726.938L613.381 718.276L609.686 709.15C608.351 711.183 606.622 712.778 604.501 713.935C600.696 716.009 597.071 716.455 593.626 715.272C590.182 714.09 587.302 711.376 584.989 707.133C583.582 704.554 582.869 701.941 582.85 699.294C582.822 696.675 583.514 694.245 584.926 692.004C586.348 689.781 588.44 687.917 591.202 686.411C593.617 685.095 596.122 684.358 598.717 684.2C601.322 684.061 603.713 684.549 605.887 685.665C608.043 686.791 609.776 688.469 611.086 690.697L603.239 694.975C602.167 693.4 600.883 692.416 599.387 692.022C597.882 691.656 596.325 691.911 594.715 692.789C592.923 693.766 591.891 695.159 591.619 696.968C591.358 698.796 591.871 700.889 593.157 703.249C594.394 705.517 595.899 706.95 597.673 707.549C599.447 708.148 601.358 707.889 603.407 706.772C605.291 705.745 606.549 704.418 607.181 702.792L607.56 701.66L614.723 699.783ZM555.044 728.265C552.032 722.741 550.872 717.892 551.563 713.719C552.253 709.546 554.803 706.257 559.211 703.854C563.564 701.48 567.676 701.101 571.546 702.716C575.417 704.331 578.841 707.804 581.818 713.133L585.827 720.486C588.868 726.065 590.025 730.928 589.296 735.074C588.549 739.231 585.998 742.496 581.645 744.869C577.292 747.243 573.18 747.622 569.309 746.007C565.449 744.41 562.03 740.947 559.053 735.618L555.044 728.265ZM567.371 732.008C569.177 735.318 570.945 737.474 572.678 738.476C574.402 739.505 576.224 739.496 578.145 738.449C580.01 737.432 580.997 735.956 581.106 734.023C581.206 732.117 580.451 729.622 578.84 726.538L573.544 716.825C571.769 713.569 570.009 711.385 568.263 710.272C566.509 709.188 564.654 709.179 562.696 710.247C560.758 711.304 559.772 712.826 559.74 714.813C559.708 716.8 560.527 719.367 562.196 722.515L567.371 732.008Z" fill="#FF16A3"/>
<path d="M713.229 534.979L720.342 504.613L726.366 506.025L738.283 523.933C739.972 526.405 741.509 528.295 742.893 529.603C744.272 530.932 745.682 531.765 747.122 532.102C749.089 532.563 750.747 532.427 752.096 531.695C753.465 530.967 754.365 529.68 754.798 527.834C755.263 525.846 754.942 524.113 753.833 522.633C752.74 521.179 751.078 520.191 748.847 519.668L750.914 510.844C753.612 511.476 755.927 512.692 757.859 514.493C759.786 516.314 761.103 518.548 761.809 521.196C762.536 523.848 762.55 526.665 761.851 529.647C760.782 534.211 758.858 537.494 756.078 539.496C753.293 541.518 749.903 542.061 745.907 541.125C743.716 540.612 741.618 539.522 739.612 537.853C737.606 536.185 735.415 533.618 733.039 530.151L724.78 517.593L720.318 536.64L713.229 534.979ZM723.292 574.503C717.166 573.068 712.777 570.703 710.126 567.407C707.474 564.111 706.721 560.019 707.866 555.131C708.997 550.303 711.454 546.984 715.237 545.174C719.021 543.365 723.891 543.125 729.849 544.457L738.003 546.367C744.19 547.816 748.586 550.194 751.192 553.501C753.794 556.828 754.529 560.905 753.398 565.733C752.267 570.56 749.81 573.879 746.027 575.689C742.264 577.503 737.403 577.745 731.446 576.413L723.292 574.503ZM734.297 567.806C737.968 568.666 740.754 568.783 742.655 568.159C744.572 567.559 745.779 566.195 746.278 564.065C746.763 561.996 746.321 560.277 744.951 558.907C743.597 557.563 741.233 556.464 737.86 555.609L727.089 553.086C723.478 552.24 720.677 552.098 718.684 552.658C716.707 553.243 715.464 554.621 714.955 556.791C714.452 558.941 714.93 560.69 716.39 562.038C717.851 563.386 720.31 564.486 723.769 565.339L734.297 567.806Z" fill="#FF16A3"/>
<defs>
<radialGradient id="paint0_angular_1:79" cx="0" cy="0" r="1" gradientUnits="userSpaceOnUse" gradientTransform="translate(444.5 446.5) rotate(90) scale(420.5 418.5)">
<stop stop-color="#A2E633"/>
<stop offset="0.235416" stop-color="#A2E633" stop-opacity="0"/>
</radialGradient>
</defs>
</svg>
